<?xml version="1.0" encoding="utf-8"?>
<!-- Generator: Adobe Illustrator 24.0.0, SVG Export Plug-In . SVG Version: 6.00 Build 0)  -->
<svg version="1.1" id="Layer_1" xmlns="http://www.w3.org/2000/svg" xmlns:xlink="http://www.w3.org/1999/xlink" x="0px" y="0px"
	 viewBox="0 0 547.6 883.5" style="enable-background:new 0 0 547.6 883.5;" xml:space="preserve">
<style type="text/css">
	.st0{fill:none;stroke:#000000;stroke-width:2.5;}
	.st1{fill:none;stroke:#000000;stroke-width:5;}
</style>
<g>
	<rect x="386.1" y="242.3" class="st0" width="16" height="16"/>
	<rect x="402.1" y="242.3" class="st0" width="16" height="16"/>
	<rect x="386.3" y="210.3" class="st0" width="31.9" height="32"/>
	<rect x="338.1" y="210.3" class="st0" width="48" height="48"/>
	<rect x="338.1" y="258.3" class="st0" width="80" height="80"/>
	<rect x="417.7" y="210.3" class="st0" width="128.4" height="128"/>
	<rect x="338.2" y="2.2" class="st0" width="207.8" height="208.2"/>
	<rect x="2.1" y="2.2" class="st0" width="336" height="336"/>
	<rect x="2.1" y="338.2" class="st0" width="544" height="544"/>
</g>
<g>
	<path class="st1" d="M418.1,242.3c0,8.8-7.2,16-16,16"/>
	<path class="st1" d="M386.1,210.3c17.7,0,32,14.3,32,32"/>
	<path class="st1" d="M338.1,258.3c0-26.5,21.5-48,48-48"/>
	<path class="st1" d="M418.1,338.3c-44.2,0-80-35.8-80-80"/>
	<path class="st1" d="M546.1,210.3c0,70.7-57.3,128-128,128"/>
	<path class="st1" d="M338.1,2.3c114.9,0,208,93.1,208,208"/>
	<path class="st1" d="M546.1,882.2c-300.4,0-544-243.6-544-544"/>
	<path class="st1" d="M2.1,338.2c0-185.6,150.4-336,336-336"/>
</g>
</svg>
